<svg width="100" height="100" viewBox="0 0 100 100" fill="none" xmlns="http://www.w3.org/2000/svg">
<path d="M91.6667 77.0833C91.6667 79.846 90.5692 82.4955 88.6157 84.449C86.6622 86.4025 84.0127 87.5 81.25 87.5C78.4874 87.5 75.8378 86.4025 73.8843 84.449C71.9308 82.4955 70.8334 79.846 70.8334 77.0833C70.8334 72.7917 73.4167 69.125 77.0834 67.5417V25H58.3334V30.625C63.4167 33.0417 66.6667 38.125 66.6667 43.75V91.6667H8.33337V43.75C8.33337 38.125 11.5834 33.0417 16.6667 30.625V25H8.33337V16.6667H16.6667V14.5833C16.6667 12.9257 17.3252 11.336 18.4973 10.1639C19.6694 8.99182 21.2591 8.33334 22.9167 8.33334C24.5743 8.33334 26.164 8.99182 27.3361 10.1639C28.5082 11.336 29.1667 12.9257 29.1667 14.5833V16.6667H45.8334V14.5833C45.8334 12.9257 46.4919 11.336 47.664 10.1639C48.8361 8.99182 50.4258 8.33334 52.0834 8.33334C53.741 8.33334 55.3307 8.99182 56.5028 10.1639C57.6749 11.336 58.3334 12.9257 58.3334 14.5833V16.6667H77.0834C79.2935 16.6667 81.4131 17.5446 82.9759 19.1075C84.5387 20.6703 85.4167 22.7899 85.4167 25V67.5417C89.0834 69.125 91.6667 72.7917 91.6667 77.0833ZM45.8334 30.625V25H29.1667V30.625C34.25 33.0417 37.5 38.125 37.5 43.75C37.5 38.125 40.75 33.0417 45.8334 30.625Z" fill="black"/>
</svg>
