<svg width="100" height="100" viewBox="0 0 100 100" fill="none" xmlns="http://www.w3.org/2000/svg">
<path d="M20.8333 29.1667C18.6232 29.1667 16.5036 30.0446 14.9408 31.6074C13.378 33.1702 12.5 35.2899 12.5 37.5V62.5C12.5 64.7101 13.378 66.8297 14.9408 68.3925C16.5036 69.9553 18.6232 70.8333 20.8333 70.8333H33.3333V62.5H20.8333V37.5H33.3333V29.1667H20.8333ZM45.8333 29.1667C43.6232 29.1667 41.5036 30.0446 39.9408 31.6074C38.378 33.1702 37.5 35.2899 37.5 37.5V62.5C37.5 64.7101 38.378 66.8297 39.9408 68.3925C41.5036 69.9553 43.6232 70.8333 45.8333 70.8333H54.1667C56.3768 70.8333 58.4964 69.9553 60.0592 68.3925C61.622 66.8297 62.5 64.7101 62.5 62.5V37.5C62.5 35.2899 61.622 33.1702 60.0592 31.6074C58.4964 30.0446 56.3768 29.1667 54.1667 29.1667H45.8333ZM45.8333 37.5H54.1667V62.5H45.8333V37.5ZM66.6667 43.75V50H79.1667V56.25H72.9167C71.2591 56.25 69.6694 56.9085 68.4973 58.0806C67.3251 59.2527 66.6667 60.8424 66.6667 62.5V75H85.4167V68.75H72.9167V62.5H79.1667C80.8243 62.5 82.414 61.8415 83.5861 60.6694C84.7582 59.4973 85.4167 57.9076 85.4167 56.25V50C85.4167 48.3424 84.7582 46.7527 83.5861 45.5806C82.414 44.4085 80.8243 43.75 79.1667 43.75H66.6667Z" fill="black"/>
</svg>
