<svg width="100" height="100" viewBox="0 0 100 100" fill="none" xmlns="http://www.w3.org/2000/svg">
<path d="M51.5625 93.75C39.5449 93.75 28.0195 88.976 19.5217 80.4783C11.024 71.9805 6.25 60.4551 6.25 48.4375C6.25 30.0781 16.7969 13.6172 33.127 6.50976C33.7025 6.25893 34.3402 6.18727 34.9571 6.30411C35.5739 6.42095 36.1413 6.72087 36.5852 7.16481C37.0291 7.60874 37.329 8.17609 37.4459 8.79293C37.5627 9.40978 37.4911 10.0475 37.2402 10.623C35.3652 14.9277 34.375 20.4414 34.375 26.5625C34.375 48.1016 51.8984 65.625 73.4375 65.625C79.5586 65.625 85.0723 64.6348 89.377 62.7598C89.9525 62.5089 90.5902 62.4373 91.2071 62.5541C91.8239 62.6709 92.3913 62.9709 92.8352 63.4148C93.2791 63.8587 93.5791 64.4261 93.6959 65.0429C93.8127 65.6598 93.7411 66.2975 93.4902 66.873C86.3828 83.2031 69.9219 93.75 51.5625 93.75Z" fill="black"/>
</svg>
