<svg width="100" height="100" viewBox="0 0 100 100" fill="none" xmlns="http://www.w3.org/2000/svg">
<path d="M37.6667 89.75C41.6667 90.9583 45.7083 91.6667 50 91.6667C61.0507 91.6667 71.6488 87.2768 79.4628 79.4628C87.2768 71.6488 91.6667 61.0507 91.6667 50C91.6667 44.5283 90.5889 39.1101 88.495 34.0549C86.401 28.9996 83.3319 24.4063 79.4628 20.5372C75.5937 16.6681 71.0004 13.599 65.9452 11.505C60.8899 9.41108 55.4718 8.33334 50 8.33334C44.5283 8.33334 39.1101 9.41108 34.0549 11.505C28.9996 13.599 24.4063 16.6681 20.5372 20.5372C12.7232 28.3512 8.33334 38.9493 8.33334 50C8.33334 67.7083 19.4583 82.9167 35.1667 88.9167C34.7917 85.6667 34.4167 80.2917 35.1667 76.5833L39.9583 56C39.9583 56 38.75 53.5833 38.75 49.75C38.75 44 42.3333 39.7083 46.4167 39.7083C50 39.7083 51.6667 42.3333 51.6667 45.7083C51.6667 49.2917 49.2917 54.4167 48.0833 59.3333C47.375 63.4167 50.25 67 54.4167 67C61.8333 67 67.5833 59.0833 67.5833 47.9167C67.5833 37.9167 60.4167 31.0833 50.125 31.0833C38.375 31.0833 31.4583 39.8333 31.4583 49.0417C31.4583 52.625 32.625 56.25 34.5417 58.625C34.9167 58.875 34.9167 59.2083 34.7917 59.8333L33.5833 64.375C33.5833 65.0833 33.125 65.3333 32.4167 64.8333C27.0833 62.5 24 54.9167 24 48.7917C24 35.625 33.3333 23.6667 51.3333 23.6667C65.6667 23.6667 76.8333 33.9583 76.8333 47.625C76.8333 61.9583 67.9583 73.4583 55.25 73.4583C51.2083 73.4583 47.25 71.2917 45.8333 68.75L43.0417 78.625C42.0833 82.2083 39.4583 87 37.6667 89.875V89.75Z" fill="white"/>
</svg>
