<svg width="100" height="100" viewBox="0 0 100 100" fill="none" xmlns="http://www.w3.org/2000/svg">
<path fill-rule="evenodd" clip-rule="evenodd" d="M56.1791 19.3333C55.7596 20.0318 55.392 20.7602 55.0791 21.5125C57.2957 22.1125 59.3832 23.0958 61.2999 24.3791C65.2374 21.8125 69.7916 20.5041 74.5374 21.3375C81.5082 22.5666 86.4749 27.9666 89.2332 34.5458C92.0082 41.175 92.8332 49.5458 91.3166 58.1458C89.7999 66.7458 86.1624 74.3291 81.2874 79.6041C76.4457 84.8458 69.9291 88.2208 62.9624 86.9916C61.4223 86.7176 59.9285 86.228 58.5249 85.5375C55.8676 86.8261 52.9532 87.497 49.9999 87.5C46.9749 87.5 44.1041 86.7916 41.4791 85.5416C40.0739 86.2311 38.5787 86.7193 37.0374 86.9916C30.0707 88.2208 23.5541 84.8458 18.7124 79.6083C13.8374 74.3291 10.1957 66.7458 8.68323 58.15C7.16657 49.5458 7.99157 41.175 10.7666 34.55C13.5249 27.9666 18.4916 22.5666 25.4624 21.3416C30.2082 20.5041 34.7624 21.8125 38.6999 24.3833C41.024 22.8057 43.6432 21.7144 46.3999 21.175C46.9749 19.05 47.9332 16.875 49.0332 15.0458C49.9582 13.4958 51.1374 11.9416 52.5457 10.7166C53.9124 9.53331 55.8916 8.33331 58.3332 8.33331C59.4383 8.31176 60.5067 8.73008 61.3033 9.49625C62.0999 10.2624 62.5596 11.3137 62.5811 12.4187C62.6027 13.5238 62.1844 14.5922 61.4182 15.3888C60.6521 16.1854 59.6008 16.6451 58.4957 16.6666C57.4749 17.1666 56.7332 18.4041 56.1791 19.3333ZM35.4166 52.4916C34.4596 53.0442 33.3223 53.1939 32.2549 52.9079C31.1875 52.6219 30.2775 51.9236 29.7249 50.9666L25.5582 43.75C25.146 43.0362 24.9547 42.2163 25.0086 41.3938C25.0624 40.5713 25.359 39.7833 25.8608 39.1294C26.3626 38.4755 27.047 37.9852 27.8276 37.7203C28.6081 37.4555 29.4496 37.4281 30.2457 37.6416L41.6291 40.6916C42.4251 40.905 43.14 41.3496 43.6833 41.9693C44.2266 42.5889 44.574 43.3557 44.6815 44.1728C44.7889 44.9899 44.6517 45.8205 44.2871 46.5596C43.9226 47.2986 43.347 47.913 42.6332 48.325L35.4166 52.4916ZM70.2749 50.9666C69.7223 51.9236 68.8123 52.6219 67.7449 52.9079C66.6775 53.1939 65.5402 53.0442 64.5832 52.4916L57.3666 48.325C56.6528 47.913 56.0772 47.2986 55.7127 46.5596C55.3481 45.8205 55.2109 44.9899 55.3183 44.1728C55.4258 43.3557 55.7732 42.5889 56.3165 41.9693C56.8598 41.3496 57.5747 40.905 58.3707 40.6916L69.7541 37.6416C70.5502 37.4281 71.3917 37.4555 72.1722 37.7203C72.9528 37.9852 73.6372 38.4755 74.139 39.1294C74.6408 39.7833 74.9374 40.5713 74.9912 41.3938C75.0451 42.2163 74.8538 43.0362 74.4416 43.75L70.2749 50.9666ZM39.7874 66.3C40.2007 66.6096 40.7117 66.7599 41.2268 66.7231C41.7419 66.6864 42.2264 66.4651 42.5916 66.1C44.5567 64.1357 47.2214 63.0323 49.9999 63.0323C52.7784 63.0323 55.4431 64.1357 57.4082 66.1C57.7734 66.4651 58.2579 66.6864 58.773 66.7231C59.2881 66.7599 59.7991 66.6096 60.2124 66.3L64.1707 63.3333C65.0548 62.6703 66.166 62.3856 67.26 62.5419C68.354 62.6981 69.341 63.2826 70.0041 64.1666C70.6671 65.0507 70.9518 66.1619 70.7955 67.2559C70.6392 68.3499 70.0548 69.3369 69.1707 70L65.2124 72.9666C63.1943 74.4795 60.6984 75.2138 58.1826 75.0347C55.6668 74.8556 53.3 73.7751 51.5166 71.9916C51.1142 71.5896 50.5687 71.3638 49.9999 71.3638C49.4311 71.3638 48.8856 71.5896 48.4832 71.9916C46.6998 73.7751 44.333 74.8556 41.8172 75.0347C39.3014 75.2138 36.8055 74.4795 34.7874 72.9666L30.8332 70C30.3955 69.6717 30.0267 69.2604 29.7479 68.7895C29.4691 68.3187 29.2858 67.7976 29.2084 67.2559C29.1311 66.7142 29.1611 66.1626 29.2969 65.6326C29.4327 65.1025 29.6716 64.6044 29.9999 64.1666C30.3282 63.7289 30.7395 63.3601 31.2103 63.0813C31.6812 62.8026 32.2023 62.6192 32.744 62.5419C33.2857 62.4645 33.8373 62.4945 34.3673 62.6303C34.8974 62.7661 35.3955 63.005 35.8332 63.3333L39.7874 66.3Z" fill="white"/>
</svg>
