<svg width="113" height="100" viewBox="0 0 113 100" fill="none" xmlns="http://www.w3.org/2000/svg">
<path d="M2.06243 99.9468C2.46264 100.051 2.88783 99.9934 3.24582 99.7863C3.60382 99.5793 3.86579 99.2394 3.97493 98.8405C7.19368 86.8312 20.2749 83.7187 28.0937 81.8562C30.0531 81.3905 31.5999 81.0218 32.6062 80.5874C41.5124 76.7218 44.4156 70.503 45.2843 65.9655C45.336 65.6956 45.3155 65.4168 45.225 65.1572C45.1344 64.8977 44.977 64.6667 44.7687 64.4874C40.1312 60.4843 36.2187 54.4749 33.7499 47.5624C33.6797 47.3645 33.5702 47.1827 33.4281 47.028C30.1624 43.478 28.2874 39.7249 28.2874 36.7343C28.2874 34.9874 28.9468 33.8155 30.4312 32.9312C30.6535 32.7982 30.8393 32.6121 30.9719 32.3896C31.1044 32.167 31.1796 31.915 31.1906 31.6562C31.8812 15.7374 43.2187 3.20615 57.1249 3.1249L57.4593 3.14678C71.4343 3.34053 82.6999 16.1405 83.1031 32.2843C83.1091 32.5049 83.1618 32.7217 83.2577 32.9204C83.3535 33.1192 83.4904 33.2954 83.6593 33.4374C84.6374 34.2655 85.0937 35.3155 85.0937 36.7405C85.0937 39.2437 83.7593 42.3218 81.3406 45.403C81.2241 45.5505 81.1352 45.7177 81.0781 45.8968C78.5781 53.8218 74.0906 60.8187 68.7718 65.0999C68.5509 65.2774 68.3825 65.5116 68.2845 65.7775C68.1865 66.0434 68.1627 66.3309 68.2156 66.6093C69.0843 71.1437 71.9874 77.3593 80.8937 81.2311C81.9468 81.6874 83.5812 82.0436 85.6531 82.4905C93.3937 84.1655 106.347 86.9749 109.525 98.8405C109.578 99.0387 109.67 99.2245 109.795 99.3872C109.92 99.5499 110.076 99.6864 110.254 99.7888C110.432 99.8913 110.628 99.9577 110.832 99.9842C111.036 100.011 111.242 99.997 111.441 99.9437C111.639 99.8903 111.825 99.7984 111.987 99.6733C112.15 99.5482 112.286 99.3922 112.389 99.2143C112.491 99.0364 112.558 98.8401 112.584 98.6366C112.611 98.433 112.597 98.2262 112.544 98.028C108.872 84.3186 94.1968 81.1405 86.3156 79.4343C84.4874 79.0374 82.9093 78.6968 82.1406 78.3593C76.3281 75.8343 72.7468 71.9874 71.4812 66.9062C76.8781 62.2718 81.3937 55.1218 83.9749 47.103C86.7156 43.5405 88.2218 39.8718 88.2218 36.7374C88.2218 34.6468 87.5468 32.903 86.2093 31.5405C85.4656 14.028 72.9687 0.237402 57.4593 0.0155273L56.9937 0.00927734C41.7656 0.0905273 29.2156 13.5187 28.1187 30.728C26.1624 32.1655 25.1687 34.1812 25.1687 36.7405C25.1687 40.4374 27.2593 44.8593 30.9187 48.9155C33.4468 55.8624 37.3656 61.9655 42.0312 66.2374C40.7718 71.3374 37.1874 75.1968 31.3624 77.7249C30.6093 78.053 29.1093 78.4124 27.3718 78.8249C19.4312 80.7124 4.65618 84.228 0.956182 98.0343C0.849327 98.4346 0.90584 98.8609 1.11329 99.2196C1.32075 99.5782 1.66215 99.8398 2.06243 99.9468Z" fill="black"/>
</svg>
