<svg width="100" height="100" viewBox="0 0 100 100" fill="none" xmlns="http://www.w3.org/2000/svg">
<path d="M93.5833 25C90.375 26.4583 86.9167 27.4167 83.3333 27.875C87 25.6667 89.8334 22.1667 91.1667 17.9583C87.7084 20.0417 83.875 21.5 79.8333 22.3333C76.5417 18.75 71.9167 16.6667 66.6667 16.6667C56.875 16.6667 48.875 24.6667 48.875 34.5417C48.875 35.9583 49.0417 37.3333 49.3334 38.625C34.5 37.875 21.2917 30.75 12.5 19.9583C10.9584 22.5833 10.0834 25.6667 10.0834 28.9167C10.0834 35.125 13.2084 40.625 18.0417 43.75C15.0834 43.75 12.3334 42.9167 9.91669 41.6667V41.7917C9.91669 50.4583 16.0834 57.7083 24.25 59.3333C21.6285 60.0539 18.8752 60.1538 16.2084 59.625C17.34 63.177 19.5564 66.285 22.5459 68.5122C25.5354 70.7394 29.1477 71.9737 32.875 72.0417C26.557 77.0438 18.7251 79.7475 10.6667 79.7083C9.25002 79.7083 7.83335 79.625 6.41669 79.4583C14.3334 84.5417 23.75 87.5 33.8334 87.5C66.6667 87.5 84.7084 60.25 84.7084 36.625C84.7084 35.8333 84.7083 35.0833 84.6667 34.2917C88.1667 31.7917 91.1667 28.625 93.5833 25Z" fill="white"/>
</svg>
