<svg width="100" height="100" viewBox="0 0 100 100" fill="none" xmlns="http://www.w3.org/2000/svg">
<path d="M41.6666 62.5L63.2916 50L41.6666 37.5V62.5ZM89.8333 29.875C90.375 31.8333 90.75 34.4583 91 37.7917C91.2916 41.125 91.4166 44 91.4166 46.5L91.6666 50C91.6666 59.125 91 65.8333 89.8333 70.125C88.7916 73.875 86.375 76.2917 82.625 77.3333C80.6666 77.875 77.0833 78.25 71.5833 78.5C66.1666 78.7917 61.2083 78.9167 56.625 78.9167L50 79.1667C32.5416 79.1667 21.6666 78.5 17.375 77.3333C13.625 76.2917 11.2083 73.875 10.1666 70.125C9.62498 68.1667 9.24998 65.5417 8.99998 62.2083C8.70831 58.875 8.58331 56 8.58331 53.5L8.33331 50C8.33331 40.875 8.99998 34.1667 10.1666 29.875C11.2083 26.125 13.625 23.7083 17.375 22.6667C19.3333 22.125 22.9166 21.75 28.4166 21.5C33.8333 21.2083 38.7916 21.0833 43.375 21.0833L50 20.8333C67.4583 20.8333 78.3333 21.5 82.625 22.6667C86.375 23.7083 88.7916 26.125 89.8333 29.875Z" fill="white"/>
</svg>
